#N canvas 179 416 814 341 12;
#X floatatom 18 127 5 0 0 0 - - -;
#X obj 18 97 route smile righteye lefteye eulerX eulerY eulerZ;
#X floatatom 74 127 5 0 0 0 - - -;
#X floatatom 131 127 5 0 0 0 - - -;
#X floatatom 188 127 5 0 0 0 - - -;
#X floatatom 244 127 5 0 0 0 - - -;
#X floatatom 301 127 5 0 0 0 - - -;
#X obj 21 183 hsl 128 15 0 1 0 0 empty empty smiling_0-1 5 -8 0 10
-262144 -1 -1 0 1;
#X obj 77 223 hsl 128 15 0 1 0 0 empty empty right_eye_0-1 5 -8 0 10
-262144 -1 -1 0 1;
#X obj 134 267 hsl 128 15 0 1 0 0 empty empty left_eye_0-1 5 -8 0 10
-262144 -1 -1 0 1;
#X obj 191 179 hsl 128 15 -1 1 0 0 empty empty eulerX_(-1_1) 5 -8 0
10 -262144 -1 -1 0 1;
#X obj 247 220 hsl 128 15 -1 1 0 0 empty empty EulerY_(-1_1) 5 -8 0
10 -262144 -1 -1 0 1;
#X obj 304 263 hsl 128 15 -1 1 0 0 empty empty eulerZ_(-1_1) 5 -8 0
10 -262144 -1 -1 0 1;
#X obj 18 39 oscparse;
#X obj 18 66 list trim;
#X obj 18 11 netreceive -u -b 3000;
#X text 450 136 N.B. You have to open the receiver patch before enstablish
the connection. © Rino Petrozziello - 2022, f 46;
#X text 450 33 Download "Headbot" android application on your smartphone.
You can find it on Google Play Store: https://play.google.com/store/apps/details?id=com.rinopetrozziello.headbot
, f 46;
#X connect 0 0 7 0;
#X connect 1 0 0 0;
#X connect 1 1 2 0;
#X connect 1 2 3 0;
#X connect 1 3 4 0;
#X connect 1 4 5 0;
#X connect 1 5 6 0;
#X connect 2 0 8 0;
#X connect 3 0 9 0;
#X connect 4 0 10 0;
#X connect 5 0 11 0;
#X connect 6 0 12 0;
#X connect 13 0 14 0;
#X connect 14 0 1 0;
#X connect 15 0 13 0;
